<?xml version="1.0" encoding="UTF-8" standalone="no"?>
<!DOCTYPE svg PUBLIC "-//W3C//DTD SVG 1.1//EN" "http://www.w3.org/Graphics/SVG/1.1/DTD/svg11.dtd">
<!-- Generated by graphviz version 2.40.1 (20161225.0304)
 -->
<!-- Title: %0 Pages: 1 -->
<svg width="476pt" height="514pt" viewBox="0.00 0.00 475.69 513.60" xmlns="http://www.w3.org/2000/svg" xmlns:xlink="http://www.w3.org/1999/xlink">
<g id="graph0" class="graph" transform="scale(1 1) rotate(0) translate(4 509.6)">
<title>%0</title>
<polygon fill="#ffffff" stroke="transparent" points="-4,4 -4,-509.6 471.6913,-509.6 471.6913,4 -4,4"/>
<!-- _ -->
<g id="node1" class="node">
<title>_</title>
<ellipse fill="none" stroke="#000000" cx="100.6244" cy="-487.6" rx="37.0989" ry="18"/>
<text text-anchor="middle" x="100.6244" y="-483.4" font-family="Times,serif" font-size="14.00" fill="#000000">Scope </text>
</g>
<!-- _x0 -->
<g id="node6" class="node">
<title>_x0</title>
<ellipse fill="none" stroke="#000000" cx="100.6244" cy="-414.6" rx="64.6416" ry="18"/>
<text text-anchor="middle" x="100.6244" y="-410.4" font-family="Times,serif" font-size="14.00" fill="#000000">_x0 = If x &lt; 1</text>
</g>
<!-- _&#45;&gt;_x0 -->
<g id="edge1" class="edge">
<title>_-&gt;_x0</title>
<path fill="none" stroke="#000000" d="M100.6244,-469.5551C100.6244,-461.4828 100.6244,-451.7764 100.6244,-442.7817"/>
<polygon fill="#000000" stroke="#000000" points="104.1245,-442.6903 100.6244,-432.6904 97.1245,-442.6904 104.1245,-442.6903"/>
</g>
<!-- _1 -->
<g id="node2" class="node">
<title>_1</title>
<ellipse fill="none" stroke="#000000" cx="50.6244" cy="-325.8" rx="41.7561" ry="18"/>
<text text-anchor="middle" x="50.6244" y="-321.6" font-family="Times,serif" font-size="14.00" fill="#000000">Scope 1</text>
</g>
<!-- _x2 -->
<g id="node8" class="node">
<title>_x2</title>
<ellipse fill="none" stroke="#000000" cx="40.6244" cy="-252.8" rx="40.7492" ry="18"/>
<text text-anchor="middle" x="40.6244" y="-248.6" font-family="Times,serif" font-size="14.00" fill="#000000">_x2 = 0</text>
</g>
<!-- _1&#45;&gt;_x2 -->
<g id="edge2" class="edge">
<title>_1-&gt;_x2</title>
<path fill="none" stroke="#000000" d="M48.1525,-307.7551C47.0467,-299.6828 45.7171,-289.9764 44.4849,-280.9817"/>
<polygon fill="#000000" stroke="#000000" points="47.9274,-280.3228 43.1026,-270.8904 40.9922,-281.2729 47.9274,-280.3228"/>
</g>
<!-- _3 -->
<g id="node3" class="node">
<title>_3</title>
<ellipse fill="none" stroke="#000000" cx="157.6244" cy="-325.8" rx="41.7561" ry="18"/>
<text text-anchor="middle" x="157.6244" y="-321.6" font-family="Times,serif" font-size="14.00" fill="#000000">Scope 3</text>
</g>
<!-- _x4 -->
<g id="node9" class="node">
<title>_x4</title>
<ellipse fill="none" stroke="#000000" cx="163.6244" cy="-252.8" rx="64.6416" ry="18"/>
<text text-anchor="middle" x="163.6244" y="-248.6" font-family="Times,serif" font-size="14.00" fill="#000000">_x4 = If x &lt; 2</text>
</g>
<!-- _3&#45;&gt;_x4 -->
<g id="edge3" class="edge">
<title>_3-&gt;_x4</title>
<path fill="none" stroke="#000000" d="M159.1076,-307.7551C159.771,-299.6828 160.5688,-289.9764 161.3081,-280.9817"/>
<polygon fill="#000000" stroke="#000000" points="164.8065,-281.1435 162.1375,-270.8904 157.8301,-280.57 164.8065,-281.1435"/>
</g>
<!-- _5 -->
<g id="node4" class="node">
<title>_5</title>
<ellipse fill="none" stroke="#000000" cx="106.6244" cy="-164" rx="41.7561" ry="18"/>
<text text-anchor="middle" x="106.6244" y="-159.8" font-family="Times,serif" font-size="14.00" fill="#000000">Scope 5</text>
</g>
<!-- _x6 -->
<g id="node10" class="node">
<title>_x6</title>
<ellipse fill="none" stroke="#000000" cx="88.6244" cy="-91" rx="40.7492" ry="18"/>
<text text-anchor="middle" x="88.6244" y="-86.8" font-family="Times,serif" font-size="14.00" fill="#000000">_x6 = 1</text>
</g>
<!-- _5&#45;&gt;_x6 -->
<g id="edge4" class="edge">
<title>_5-&gt;_x6</title>
<path fill="none" stroke="#000000" d="M102.175,-145.9551C100.1629,-137.7951 97.7391,-127.9652 95.5011,-118.8887"/>
<polygon fill="#000000" stroke="#000000" points="98.8774,-117.9616 93.0851,-109.0904 92.081,-119.6375 98.8774,-117.9616"/>
</g>
<!-- _7 -->
<g id="node5" class="node">
<title>_7</title>
<ellipse fill="none" stroke="#000000" cx="225.6244" cy="-164" rx="41.7561" ry="18"/>
<text text-anchor="middle" x="225.6244" y="-159.8" font-family="Times,serif" font-size="14.00" fill="#000000">Scope 7</text>
</g>
<!-- _x10 -->
<g id="node7" class="node">
<title>_x10</title>
<ellipse fill="none" stroke="#000000" cx="225.6244" cy="-91" rx="77.7909" ry="18"/>
<text text-anchor="middle" x="225.6244" y="-86.8" font-family="Times,serif" font-size="14.00" fill="#000000">_x10 = fib (x - 2)</text>
</g>
<!-- _7&#45;&gt;_x10 -->
<g id="edge5" class="edge">
<title>_7-&gt;_x10</title>
<path fill="none" stroke="#000000" d="M225.6244,-145.9551C225.6244,-137.8828 225.6244,-128.1764 225.6244,-119.1817"/>
<polygon fill="#000000" stroke="#000000" points="229.1245,-119.0903 225.6244,-109.0904 222.1245,-119.0904 229.1245,-119.0903"/>
</g>
<!-- _x9 -->
<g id="node12" class="node">
<title>_x9</title>
<ellipse fill="none" stroke="#000000" cx="394.6244" cy="-91" rx="73.1339" ry="18"/>
<text text-anchor="middle" x="394.6244" y="-86.8" font-family="Times,serif" font-size="14.00" fill="#000000">_x9 = fib (x - 1)</text>
</g>
<!-- _7&#45;&gt;_x9 -->
<g id="edge6" class="edge">
<title>_7-&gt;_x9</title>
<path fill="none" stroke="#000000" d="M255.4492,-151.1171C281.3572,-139.9261 319.2826,-123.5441 349.0026,-110.7064"/>
<polygon fill="#000000" stroke="#000000" points="350.5458,-113.8525 358.3381,-106.674 347.77,-107.4264 350.5458,-113.8525"/>
</g>
<!-- _x0&#45;&gt;_1 -->
<g id="edge7" class="edge">
<title>_x0-&gt;_1</title>
<path fill="none" stroke="#000000" d="M90.5062,-396.63C83.3433,-383.9088 73.6179,-366.6364 65.5642,-352.3331"/>
<polygon fill="#000000" stroke="#000000" points="68.5132,-350.4367 60.557,-343.4402 62.4136,-353.8711 68.5132,-350.4367"/>
<text text-anchor="middle" x="92.677" y="-366" font-family="Times,serif" font-size="14.00" fill="#000000">then</text>
</g>
<!-- _x0&#45;&gt;_3 -->
<g id="edge8" class="edge">
<title>_x0-&gt;_3</title>
<path fill="none" stroke="#000000" d="M112.1592,-396.63C120.4026,-383.7876 131.6233,-366.307 140.8548,-351.9253"/>
<polygon fill="#000000" stroke="#000000" points="143.8449,-353.7464 146.3013,-343.4402 137.954,-349.9651 143.8449,-353.7464"/>
<text text-anchor="middle" x="145.5066" y="-366" font-family="Times,serif" font-size="14.00" fill="#000000">else</text>
</g>
<!-- _x8 -->
<g id="node11" class="node">
<title>_x8</title>
<ellipse fill="none" stroke="#000000" cx="309.6244" cy="-18" rx="79.7388" ry="18"/>
<text text-anchor="middle" x="309.6244" y="-13.8" font-family="Times,serif" font-size="14.00" fill="#000000">_x8 = _x9 + _x10</text>
</g>
<!-- _x10&#45;&gt;_x8 -->
<g id="edge9" class="edge">
<title>_x10-&gt;_x8</title>
<path fill="none" stroke="#000000" d="M245.9585,-73.3287C256.6891,-64.0033 270.018,-52.4199 281.7029,-42.2652"/>
<polygon fill="#000000" stroke="#000000" points="284.2255,-44.7099 289.4776,-35.5085 279.6337,-39.4263 284.2255,-44.7099"/>
</g>
<!-- _x4&#45;&gt;_5 -->
<g id="edge10" class="edge">
<title>_x4-&gt;_5</title>
<path fill="none" stroke="#000000" d="M152.0896,-234.83C143.8462,-221.9876 132.6255,-204.507 123.394,-190.1253"/>
<polygon fill="#000000" stroke="#000000" points="126.2948,-188.1651 117.9475,-181.6402 120.404,-191.9464 126.2948,-188.1651"/>
<text text-anchor="middle" x="152.677" y="-204.2" font-family="Times,serif" font-size="14.00" fill="#000000">then</text>
</g>
<!-- _x4&#45;&gt;_7 -->
<g id="edge11" class="edge">
<title>_x4-&gt;_7</title>
<path fill="none" stroke="#000000" d="M176.171,-234.83C185.1962,-221.9037 197.5022,-204.2783 207.5804,-189.8437"/>
<polygon fill="#000000" stroke="#000000" points="210.6634,-191.5419 213.5184,-181.3389 204.9239,-187.5345 210.6634,-191.5419"/>
<text text-anchor="middle" x="211.5066" y="-204.2" font-family="Times,serif" font-size="14.00" fill="#000000">else</text>
</g>
<!-- _x9&#45;&gt;_x8 -->
<g id="edge12" class="edge">
<title>_x9-&gt;_x8</title>
<path fill="none" stroke="#000000" d="M374.0483,-73.3287C363.1899,-64.0033 349.7024,-52.4199 337.8784,-42.2652"/>
<polygon fill="#000000" stroke="#000000" points="339.8777,-39.3686 330.0111,-35.5085 335.317,-44.679 339.8777,-39.3686"/>
</g>
</g>
</svg>