<?xml version="1.0" encoding="UTF-8" standalone="no"?>
<!DOCTYPE svg PUBLIC "-//W3C//DTD SVG 1.1//EN" "http://www.w3.org/Graphics/SVG/1.1/DTD/svg11.dtd">
<!-- Generated by graphviz version 2.40.1 (20161225.0304)
 -->
<!-- Title: %0 Pages: 1 -->
<svg width="447pt" height="514pt" viewBox="0.00 0.00 446.99 513.60" xmlns="http://www.w3.org/2000/svg" xmlns:xlink="http://www.w3.org/1999/xlink">
<g id="graph0" class="graph" transform="scale(1 1) rotate(0) translate(4 509.6)">
<title>%0</title>
<polygon fill="#ffffff" stroke="transparent" points="-4,4 -4,-509.6 442.9945,-509.6 442.9945,4 -4,4"/>
<!-- _ -->
<g id="node1" class="node">
<title>_</title>
<ellipse fill="none" stroke="#000000" cx="117.5845" cy="-487.6" rx="49.5132" ry="18"/>
<text text-anchor="middle" x="117.5845" y="-483.4" font-family="Times,serif" font-size="14.00" fill="#000000">Scope "_"</text>
</g>
<!-- _x0 -->
<g id="node6" class="node">
<title>_x0</title>
<ellipse fill="none" stroke="#000000" cx="117.5845" cy="-414.6" rx="64.6416" ry="18"/>
<text text-anchor="middle" x="117.5845" y="-410.4" font-family="Times,serif" font-size="14.00" fill="#000000">_x0 = If x &lt; 1</text>
</g>
<!-- _&#45;&gt;_x0 -->
<g id="edge1" class="edge">
<title>_-&gt;_x0</title>
<path fill="none" stroke="#000000" d="M117.5845,-469.5551C117.5845,-461.4828 117.5845,-451.7764 117.5845,-442.7817"/>
<polygon fill="#000000" stroke="#000000" points="121.0846,-442.6903 117.5845,-432.6904 114.0846,-442.6904 121.0846,-442.6903"/>
</g>
<!-- _1 -->
<g id="node2" class="node">
<title>_1</title>
<ellipse fill="none" stroke="#000000" cx="54.5845" cy="-325.8" rx="54.6691" ry="18"/>
<text text-anchor="middle" x="54.5845" y="-321.6" font-family="Times,serif" font-size="14.00" fill="#000000">Scope "_1"</text>
</g>
<!-- _x2 -->
<g id="node7" class="node">
<title>_x2</title>
<ellipse fill="none" stroke="#000000" cx="54.5845" cy="-252.8" rx="40.7492" ry="18"/>
<text text-anchor="middle" x="54.5845" y="-248.6" font-family="Times,serif" font-size="14.00" fill="#000000">_x2 = 0</text>
</g>
<!-- _1&#45;&gt;_x2 -->
<g id="edge2" class="edge">
<title>_1-&gt;_x2</title>
<path fill="none" stroke="#000000" d="M54.5845,-307.7551C54.5845,-299.6828 54.5845,-289.9764 54.5845,-280.9817"/>
<polygon fill="#000000" stroke="#000000" points="58.0846,-280.8903 54.5845,-270.8904 51.0846,-280.8904 58.0846,-280.8903"/>
</g>
<!-- _3 -->
<g id="node3" class="node">
<title>_3</title>
<ellipse fill="none" stroke="#000000" cx="181.5845" cy="-325.8" rx="54.6691" ry="18"/>
<text text-anchor="middle" x="181.5845" y="-321.6" font-family="Times,serif" font-size="14.00" fill="#000000">Scope "_3"</text>
</g>
<!-- _x4 -->
<g id="node8" class="node">
<title>_x4</title>
<ellipse fill="none" stroke="#000000" cx="181.5845" cy="-252.8" rx="64.6416" ry="18"/>
<text text-anchor="middle" x="181.5845" y="-248.6" font-family="Times,serif" font-size="14.00" fill="#000000">_x4 = If x &lt; 2</text>
</g>
<!-- _3&#45;&gt;_x4 -->
<g id="edge3" class="edge">
<title>_3-&gt;_x4</title>
<path fill="none" stroke="#000000" d="M181.5845,-307.7551C181.5845,-299.6828 181.5845,-289.9764 181.5845,-280.9817"/>
<polygon fill="#000000" stroke="#000000" points="185.0846,-280.8903 181.5845,-270.8904 178.0846,-280.8904 185.0846,-280.8903"/>
</g>
<!-- _5 -->
<g id="node4" class="node">
<title>_5</title>
<ellipse fill="none" stroke="#000000" cx="107.5845" cy="-164" rx="54.6691" ry="18"/>
<text text-anchor="middle" x="107.5845" y="-159.8" font-family="Times,serif" font-size="14.00" fill="#000000">Scope "_5"</text>
</g>
<!-- _x6 -->
<g id="node9" class="node">
<title>_x6</title>
<ellipse fill="none" stroke="#000000" cx="107.5845" cy="-91" rx="40.7492" ry="18"/>
<text text-anchor="middle" x="107.5845" y="-86.8" font-family="Times,serif" font-size="14.00" fill="#000000">_x6 = 1</text>
</g>
<!-- _5&#45;&gt;_x6 -->
<g id="edge4" class="edge">
<title>_5-&gt;_x6</title>
<path fill="none" stroke="#000000" d="M107.5845,-145.9551C107.5845,-137.8828 107.5845,-128.1764 107.5845,-119.1817"/>
<polygon fill="#000000" stroke="#000000" points="111.0846,-119.0903 107.5845,-109.0904 104.0846,-119.0904 111.0846,-119.0903"/>
</g>
<!-- _7 -->
<g id="node5" class="node">
<title>_7</title>
<ellipse fill="none" stroke="#000000" cx="234.5845" cy="-164" rx="54.6691" ry="18"/>
<text text-anchor="middle" x="234.5845" y="-159.8" font-family="Times,serif" font-size="14.00" fill="#000000">Scope "_7"</text>
</g>
<!-- a -->
<g id="node11" class="node">
<title>a</title>
<ellipse fill="none" stroke="#000000" cx="231.5845" cy="-91" rx="62.7367" ry="18"/>
<text text-anchor="middle" x="231.5845" y="-86.8" font-family="Times,serif" font-size="14.00" fill="#000000">a = fib (x - 1)</text>
</g>
<!-- _7&#45;&gt;a -->
<g id="edge5" class="edge">
<title>_7-&gt;a</title>
<path fill="none" stroke="#000000" d="M233.8429,-145.9551C233.5112,-137.8828 233.1123,-128.1764 232.7427,-119.1817"/>
<polygon fill="#000000" stroke="#000000" points="236.2357,-118.9382 232.3279,-109.0904 229.2416,-119.2257 236.2357,-118.9382"/>
</g>
<!-- b -->
<g id="node12" class="node">
<title>b</title>
<ellipse fill="none" stroke="#000000" cx="375.5845" cy="-91" rx="63.3201" ry="18"/>
<text text-anchor="middle" x="375.5845" y="-86.8" font-family="Times,serif" font-size="14.00" fill="#000000">b = fib (x - 2)</text>
</g>
<!-- _7&#45;&gt;b -->
<g id="edge6" class="edge">
<title>_7-&gt;b</title>
<path fill="none" stroke="#000000" d="M264.1427,-148.6968C285.0093,-137.8936 313.1987,-123.299 336.0047,-111.4917"/>
<polygon fill="#000000" stroke="#000000" points="337.8201,-114.4931 345.0914,-106.7872 334.6017,-108.2768 337.8201,-114.4931"/>
</g>
<!-- _x0&#45;&gt;_1 -->
<g id="edge7" class="edge">
<title>_x0-&gt;_1</title>
<path fill="none" stroke="#000000" d="M104.8355,-396.63C95.7244,-383.7876 83.3226,-366.307 73.1193,-351.9253"/>
<polygon fill="#000000" stroke="#000000" points="75.7404,-349.5709 67.0995,-343.4402 70.0313,-353.6214 75.7404,-349.5709"/>
<text text-anchor="middle" x="104.6371" y="-366" font-family="Times,serif" font-size="14.00" fill="#000000">then</text>
</g>
<!-- _x0&#45;&gt;_3 -->
<g id="edge8" class="edge">
<title>_x0-&gt;_3</title>
<path fill="none" stroke="#000000" d="M130.5359,-396.63C139.7916,-383.7876 152.3903,-366.307 162.7555,-351.9253"/>
<polygon fill="#000000" stroke="#000000" points="165.8633,-353.5992 168.8708,-343.4402 160.1845,-349.5064 165.8633,-353.5992"/>
<text text-anchor="middle" x="166.4667" y="-366" font-family="Times,serif" font-size="14.00" fill="#000000">else</text>
</g>
<!-- _x4&#45;&gt;_5 -->
<g id="edge9" class="edge">
<title>_x4-&gt;_5</title>
<path fill="none" stroke="#000000" d="M166.9645,-235.256C156.0183,-222.1206 140.8862,-203.9621 128.6375,-189.2636"/>
<polygon fill="#000000" stroke="#000000" points="131.2648,-186.9492 122.1741,-181.5076 125.8872,-191.4305 131.2648,-186.9492"/>
<text text-anchor="middle" x="163.6371" y="-204.2" font-family="Times,serif" font-size="14.00" fill="#000000">then</text>
</g>
<!-- _x4&#45;&gt;_7 -->
<g id="edge10" class="edge">
<title>_x4-&gt;_7</title>
<path fill="none" stroke="#000000" d="M192.3098,-234.83C199.8528,-222.1919 210.0768,-205.062 218.5807,-190.814"/>
<polygon fill="#000000" stroke="#000000" points="221.7554,-192.3239 223.8751,-181.9433 215.7446,-188.7364 221.7554,-192.3239"/>
<text text-anchor="middle" x="224.4667" y="-204.2" font-family="Times,serif" font-size="14.00" fill="#000000">else</text>
</g>
<!-- _x8 -->
<g id="node10" class="node">
<title>_x8</title>
<ellipse fill="none" stroke="#000000" cx="303.5845" cy="-18" rx="55.3709" ry="18"/>
<text text-anchor="middle" x="303.5845" y="-13.8" font-family="Times,serif" font-size="14.00" fill="#000000">_x8 = a + b</text>
</g>
<!-- a&#45;&gt;_x8 -->
<g id="edge11" class="edge">
<title>a-&gt;_x8</title>
<path fill="none" stroke="#000000" d="M249.0137,-73.3287C258.0345,-64.1827 269.1975,-52.8646 279.0724,-42.8526"/>
<polygon fill="#000000" stroke="#000000" points="281.7855,-45.086 286.3158,-35.5085 276.8018,-40.1705 281.7855,-45.086"/>
</g>
<!-- b&#45;&gt;_x8 -->
<g id="edge12" class="edge">
<title>b-&gt;_x8</title>
<path fill="none" stroke="#000000" d="M358.1553,-73.3287C349.1345,-64.1827 337.9715,-52.8646 328.0966,-42.8526"/>
<polygon fill="#000000" stroke="#000000" points="330.3672,-40.1705 320.8532,-35.5085 325.3835,-45.086 330.3672,-40.1705"/>
</g>
</g>
</svg>