<?xml version="1.0" encoding="UTF-8" standalone="no"?>
<!DOCTYPE svg PUBLIC "-//W3C//DTD SVG 1.1//EN" "http://www.w3.org/Graphics/SVG/1.1/DTD/svg11.dtd">
<!-- Generated by graphviz version 2.40.1 (20161225.0304)
 -->
<!-- Title: %0 Pages: 1 -->
<svg width="483pt" height="587pt" viewBox="0.00 0.00 482.65 586.60" xmlns="http://www.w3.org/2000/svg" xmlns:xlink="http://www.w3.org/1999/xlink">
<g id="graph0" class="graph" transform="scale(1 1) rotate(0) translate(4 582.6)">
<title>%0</title>
<polygon fill="#ffffff" stroke="transparent" points="-4,4 -4,-582.6 478.6514,-582.6 478.6514,4 -4,4"/>
<!-- _ -->
<g id="node1" class="node">
<title>_</title>
<ellipse fill="none" stroke="#000000" cx="117.5845" cy="-560.6" rx="49.5132" ry="18"/>
<text text-anchor="middle" x="117.5845" y="-556.4" font-family="Times,serif" font-size="14.00" fill="#000000">Scope "_"</text>
</g>
<!-- _x0 -->
<g id="node6" class="node">
<title>_x0</title>
<ellipse fill="none" stroke="#000000" cx="117.5845" cy="-487.6" rx="64.6416" ry="18"/>
<text text-anchor="middle" x="117.5845" y="-483.4" font-family="Times,serif" font-size="14.00" fill="#000000">_x0 = If x &lt; 1</text>
</g>
<!-- _&#45;&gt;_x0 -->
<g id="edge1" class="edge">
<title>_-&gt;_x0</title>
<path fill="none" stroke="#000000" d="M117.5845,-542.5551C117.5845,-534.4828 117.5845,-524.7764 117.5845,-515.7817"/>
<polygon fill="#000000" stroke="#000000" points="121.0846,-515.6903 117.5845,-505.6904 114.0846,-515.6904 121.0846,-515.6903"/>
</g>
<!-- _1 -->
<g id="node2" class="node">
<title>_1</title>
<ellipse fill="none" stroke="#000000" cx="54.5845" cy="-398.8" rx="54.6691" ry="18"/>
<text text-anchor="middle" x="54.5845" y="-394.6" font-family="Times,serif" font-size="14.00" fill="#000000">Scope "_1"</text>
</g>
<!-- _x2 -->
<g id="node8" class="node">
<title>_x2</title>
<ellipse fill="none" stroke="#000000" cx="54.5845" cy="-325.8" rx="40.7492" ry="18"/>
<text text-anchor="middle" x="54.5845" y="-321.6" font-family="Times,serif" font-size="14.00" fill="#000000">_x2 = 0</text>
</g>
<!-- _1&#45;&gt;_x2 -->
<g id="edge2" class="edge">
<title>_1-&gt;_x2</title>
<path fill="none" stroke="#000000" d="M54.5845,-380.7551C54.5845,-372.6828 54.5845,-362.9764 54.5845,-353.9817"/>
<polygon fill="#000000" stroke="#000000" points="58.0846,-353.8903 54.5845,-343.8904 51.0846,-353.8904 58.0846,-353.8903"/>
</g>
<!-- _3 -->
<g id="node3" class="node">
<title>_3</title>
<ellipse fill="none" stroke="#000000" cx="181.5845" cy="-398.8" rx="54.6691" ry="18"/>
<text text-anchor="middle" x="181.5845" y="-394.6" font-family="Times,serif" font-size="14.00" fill="#000000">Scope "_3"</text>
</g>
<!-- _x4 -->
<g id="node9" class="node">
<title>_x4</title>
<ellipse fill="none" stroke="#000000" cx="181.5845" cy="-325.8" rx="64.6416" ry="18"/>
<text text-anchor="middle" x="181.5845" y="-321.6" font-family="Times,serif" font-size="14.00" fill="#000000">_x4 = If x &lt; 2</text>
</g>
<!-- _3&#45;&gt;_x4 -->
<g id="edge3" class="edge">
<title>_3-&gt;_x4</title>
<path fill="none" stroke="#000000" d="M181.5845,-380.7551C181.5845,-372.6828 181.5845,-362.9764 181.5845,-353.9817"/>
<polygon fill="#000000" stroke="#000000" points="185.0846,-353.8903 181.5845,-343.8904 178.0846,-353.8904 185.0846,-353.8903"/>
</g>
<!-- _5 -->
<g id="node4" class="node">
<title>_5</title>
<ellipse fill="none" stroke="#000000" cx="108.5845" cy="-237" rx="54.6691" ry="18"/>
<text text-anchor="middle" x="108.5845" y="-232.8" font-family="Times,serif" font-size="14.00" fill="#000000">Scope "_5"</text>
</g>
<!-- _x6 -->
<g id="node10" class="node">
<title>_x6</title>
<ellipse fill="none" stroke="#000000" cx="105.5845" cy="-164" rx="40.7492" ry="18"/>
<text text-anchor="middle" x="105.5845" y="-159.8" font-family="Times,serif" font-size="14.00" fill="#000000">_x6 = 1</text>
</g>
<!-- _5&#45;&gt;_x6 -->
<g id="edge4" class="edge">
<title>_5-&gt;_x6</title>
<path fill="none" stroke="#000000" d="M107.8429,-218.9551C107.5112,-210.8828 107.1123,-201.1764 106.7427,-192.1817"/>
<polygon fill="#000000" stroke="#000000" points="110.2357,-191.9382 106.3279,-182.0904 103.2416,-192.2257 110.2357,-191.9382"/>
</g>
<!-- _7 -->
<g id="node5" class="node">
<title>_7</title>
<ellipse fill="none" stroke="#000000" cx="237.5845" cy="-237" rx="54.6691" ry="18"/>
<text text-anchor="middle" x="237.5845" y="-232.8" font-family="Times,serif" font-size="14.00" fill="#000000">Scope "_7"</text>
</g>
<!-- _x8 -->
<g id="node11" class="node">
<title>_x8</title>
<ellipse fill="none" stroke="#000000" cx="237.5845" cy="-164" rx="73.1339" ry="18"/>
<text text-anchor="middle" x="237.5845" y="-159.8" font-family="Times,serif" font-size="14.00" fill="#000000">_x8 = fib (x - 1)</text>
</g>
<!-- _7&#45;&gt;_x8 -->
<g id="edge5" class="edge">
<title>_7-&gt;_x8</title>
<path fill="none" stroke="#000000" d="M237.5845,-218.9551C237.5845,-210.8828 237.5845,-201.1764 237.5845,-192.1817"/>
<polygon fill="#000000" stroke="#000000" points="241.0846,-192.0903 237.5845,-182.0904 234.0846,-192.0904 241.0846,-192.0903"/>
</g>
<!-- _x9 -->
<g id="node12" class="node">
<title>_x9</title>
<ellipse fill="none" stroke="#000000" cx="401.5845" cy="-164" rx="73.1339" ry="18"/>
<text text-anchor="middle" x="401.5845" y="-159.8" font-family="Times,serif" font-size="14.00" fill="#000000">_x9 = fib (x - 2)</text>
</g>
<!-- _7&#45;&gt;_x9 -->
<g id="edge6" class="edge">
<title>_7-&gt;_x9</title>
<path fill="none" stroke="#000000" d="M270.3782,-222.4028C295.1287,-211.3858 329.3702,-196.1442 356.6667,-183.9939"/>
<polygon fill="#000000" stroke="#000000" points="358.2927,-187.1013 366.0053,-179.8371 355.4461,-180.7062 358.2927,-187.1013"/>
</g>
<!-- _x0&#45;&gt;_1 -->
<g id="edge7" class="edge">
<title>_x0-&gt;_1</title>
<path fill="none" stroke="#000000" d="M104.8355,-469.63C95.7244,-456.7876 83.3226,-439.307 73.1193,-424.9253"/>
<polygon fill="#000000" stroke="#000000" points="75.7404,-422.5709 67.0995,-416.4402 70.0313,-426.6214 75.7404,-422.5709"/>
<text text-anchor="middle" x="104.6371" y="-439" font-family="Times,serif" font-size="14.00" fill="#000000">then</text>
</g>
<!-- _x0&#45;&gt;_3 -->
<g id="edge8" class="edge">
<title>_x0-&gt;_3</title>
<path fill="none" stroke="#000000" d="M130.5359,-469.63C139.7916,-456.7876 152.3903,-439.307 162.7555,-424.9253"/>
<polygon fill="#000000" stroke="#000000" points="165.8633,-426.5992 168.8708,-416.4402 160.1845,-422.5064 165.8633,-426.5992"/>
<text text-anchor="middle" x="166.4667" y="-439" font-family="Times,serif" font-size="14.00" fill="#000000">else</text>
</g>
<!-- _x10 -->
<g id="node7" class="node">
<title>_x10</title>
<ellipse fill="none" stroke="#000000" cx="334.5845" cy="-18" rx="60.0273" ry="18"/>
<text text-anchor="middle" x="334.5845" y="-13.8" font-family="Times,serif" font-size="14.00" fill="#000000">_x10 = a + b</text>
</g>
<!-- _x4&#45;&gt;_5 -->
<g id="edge9" class="edge">
<title>_x4-&gt;_5</title>
<path fill="none" stroke="#000000" d="M166.8119,-307.83C156.1549,-294.8665 141.6127,-277.1768 129.7274,-262.7191"/>
<polygon fill="#000000" stroke="#000000" points="132.1401,-260.1424 123.086,-254.6402 126.7327,-264.5877 132.1401,-260.1424"/>
<text text-anchor="middle" x="164.6371" y="-277.2" font-family="Times,serif" font-size="14.00" fill="#000000">then</text>
</g>
<!-- _x4&#45;&gt;_7 -->
<g id="edge10" class="edge">
<title>_x4-&gt;_7</title>
<path fill="none" stroke="#000000" d="M192.9169,-307.83C201.0157,-294.9876 212.0395,-277.507 221.1091,-263.1253"/>
<polygon fill="#000000" stroke="#000000" points="224.0863,-264.9657 226.46,-254.6402 218.1653,-261.2318 224.0863,-264.9657"/>
<text text-anchor="middle" x="226.4667" y="-277.2" font-family="Times,serif" font-size="14.00" fill="#000000">else</text>
</g>
<!-- a -->
<g id="node13" class="node">
<title>a</title>
<ellipse fill="none" stroke="#000000" cx="285.5845" cy="-91" rx="40.1655" ry="18"/>
<text text-anchor="middle" x="285.5845" y="-86.8" font-family="Times,serif" font-size="14.00" fill="#000000">a = _x8</text>
</g>
<!-- _x8&#45;&gt;a -->
<g id="edge11" class="edge">
<title>_x8-&gt;a</title>
<path fill="none" stroke="#000000" d="M249.4497,-145.9551C255.2311,-137.1624 262.2875,-126.4309 268.6252,-116.7922"/>
<polygon fill="#000000" stroke="#000000" points="271.6167,-118.6132 274.1864,-108.3347 265.7678,-114.7673 271.6167,-118.6132"/>
</g>
<!-- b -->
<g id="node14" class="node">
<title>b</title>
<ellipse fill="none" stroke="#000000" cx="392.5845" cy="-91" rx="40.7492" ry="18"/>
<text text-anchor="middle" x="392.5845" y="-86.8" font-family="Times,serif" font-size="14.00" fill="#000000">b = _x9</text>
</g>
<!-- _x9&#45;&gt;b -->
<g id="edge12" class="edge">
<title>_x9-&gt;b</title>
<path fill="none" stroke="#000000" d="M399.3598,-145.9551C398.3646,-137.8828 397.1679,-128.1764 396.059,-119.1817"/>
<polygon fill="#000000" stroke="#000000" points="399.5122,-118.5869 394.8148,-109.0904 392.5648,-119.4435 399.5122,-118.5869"/>
</g>
<!-- a&#45;&gt;_x10 -->
<g id="edge13" class="edge">
<title>a-&gt;_x10</title>
<path fill="none" stroke="#000000" d="M297.1968,-73.7C303.0904,-64.9197 310.375,-54.0672 316.944,-44.2807"/>
<polygon fill="#000000" stroke="#000000" points="320.0479,-45.9365 322.7152,-35.6829 314.2358,-42.0352 320.0479,-45.9365"/>
</g>
<!-- b&#45;&gt;_x10 -->
<g id="edge14" class="edge">
<title>b-&gt;_x10</title>
<path fill="none" stroke="#000000" d="M378.8393,-73.7C371.7208,-64.7405 362.888,-53.6234 354.9901,-43.6829"/>
<polygon fill="#000000" stroke="#000000" points="357.5951,-41.3352 348.6339,-35.6829 352.1144,-45.6898 357.5951,-41.3352"/>
</g>
</g>
</svg>