<?xml version="1.0" encoding="UTF-8" standalone="no"?>
<!DOCTYPE svg PUBLIC "-//W3C//DTD SVG 1.1//EN" "http://www.w3.org/Graphics/SVG/1.1/DTD/svg11.dtd">
<!-- Generated by graphviz version 2.40.1 (20161225.0304)
 -->
<!-- Title: %0 Pages: 1 -->
<svg width="433pt" height="514pt" viewBox="0.00 0.00 433.03 513.60" xmlns="http://www.w3.org/2000/svg" xmlns:xlink="http://www.w3.org/1999/xlink">
<g id="graph0" class="graph" transform="scale(1 1) rotate(0) translate(4 509.6)">
<title>%0</title>
<polygon fill="#ffffff" stroke="transparent" points="-4,4 -4,-509.6 429.0344,-509.6 429.0344,4 -4,4"/>
<!-- _ -->
<g id="node1" class="node">
<title>_</title>
<ellipse fill="none" stroke="#000000" cx="100.6244" cy="-487.6" rx="37.0989" ry="18"/>
<text text-anchor="middle" x="100.6244" y="-483.4" font-family="Times,serif" font-size="14.00" fill="#000000">Scope </text>
</g>
<!-- _x0 -->
<g id="node6" class="node">
<title>_x0</title>
<ellipse fill="none" stroke="#000000" cx="100.6244" cy="-414.6" rx="64.6416" ry="18"/>
<text text-anchor="middle" x="100.6244" y="-410.4" font-family="Times,serif" font-size="14.00" fill="#000000">_x0 = If x &lt; 1</text>
</g>
<!-- _&#45;&gt;_x0 -->
<g id="edge1" class="edge">
<title>_-&gt;_x0</title>
<path fill="none" stroke="#000000" d="M100.6244,-469.5551C100.6244,-461.4828 100.6244,-451.7764 100.6244,-442.7817"/>
<polygon fill="#000000" stroke="#000000" points="104.1245,-442.6903 100.6244,-432.6904 97.1245,-442.6904 104.1245,-442.6903"/>
</g>
<!-- _1 -->
<g id="node2" class="node">
<title>_1</title>
<ellipse fill="none" stroke="#000000" cx="50.6244" cy="-325.8" rx="41.7561" ry="18"/>
<text text-anchor="middle" x="50.6244" y="-321.6" font-family="Times,serif" font-size="14.00" fill="#000000">Scope 1</text>
</g>
<!-- _x2 -->
<g id="node7" class="node">
<title>_x2</title>
<ellipse fill="none" stroke="#000000" cx="40.6244" cy="-252.8" rx="40.7492" ry="18"/>
<text text-anchor="middle" x="40.6244" y="-248.6" font-family="Times,serif" font-size="14.00" fill="#000000">_x2 = 0</text>
</g>
<!-- _1&#45;&gt;_x2 -->
<g id="edge2" class="edge">
<title>_1-&gt;_x2</title>
<path fill="none" stroke="#000000" d="M48.1525,-307.7551C47.0467,-299.6828 45.7171,-289.9764 44.4849,-280.9817"/>
<polygon fill="#000000" stroke="#000000" points="47.9274,-280.3228 43.1026,-270.8904 40.9922,-281.2729 47.9274,-280.3228"/>
</g>
<!-- _3 -->
<g id="node3" class="node">
<title>_3</title>
<ellipse fill="none" stroke="#000000" cx="157.6244" cy="-325.8" rx="41.7561" ry="18"/>
<text text-anchor="middle" x="157.6244" y="-321.6" font-family="Times,serif" font-size="14.00" fill="#000000">Scope 3</text>
</g>
<!-- _x4 -->
<g id="node8" class="node">
<title>_x4</title>
<ellipse fill="none" stroke="#000000" cx="163.6244" cy="-252.8" rx="64.6416" ry="18"/>
<text text-anchor="middle" x="163.6244" y="-248.6" font-family="Times,serif" font-size="14.00" fill="#000000">_x4 = If x &lt; 2</text>
</g>
<!-- _3&#45;&gt;_x4 -->
<g id="edge3" class="edge">
<title>_3-&gt;_x4</title>
<path fill="none" stroke="#000000" d="M159.1076,-307.7551C159.771,-299.6828 160.5688,-289.9764 161.3081,-280.9817"/>
<polygon fill="#000000" stroke="#000000" points="164.8065,-281.1435 162.1375,-270.8904 157.8301,-280.57 164.8065,-281.1435"/>
</g>
<!-- _5 -->
<g id="node4" class="node">
<title>_5</title>
<ellipse fill="none" stroke="#000000" cx="106.6244" cy="-164" rx="41.7561" ry="18"/>
<text text-anchor="middle" x="106.6244" y="-159.8" font-family="Times,serif" font-size="14.00" fill="#000000">Scope 5</text>
</g>
<!-- _x6 -->
<g id="node9" class="node">
<title>_x6</title>
<ellipse fill="none" stroke="#000000" cx="96.6244" cy="-91" rx="40.7492" ry="18"/>
<text text-anchor="middle" x="96.6244" y="-86.8" font-family="Times,serif" font-size="14.00" fill="#000000">_x6 = 1</text>
</g>
<!-- _5&#45;&gt;_x6 -->
<g id="edge4" class="edge">
<title>_5-&gt;_x6</title>
<path fill="none" stroke="#000000" d="M104.1525,-145.9551C103.0467,-137.8828 101.7171,-128.1764 100.4849,-119.1817"/>
<polygon fill="#000000" stroke="#000000" points="103.9274,-118.5228 99.1026,-109.0904 96.9922,-119.4729 103.9274,-118.5228"/>
</g>
<!-- _7 -->
<g id="node5" class="node">
<title>_7</title>
<ellipse fill="none" stroke="#000000" cx="217.6244" cy="-164" rx="41.7561" ry="18"/>
<text text-anchor="middle" x="217.6244" y="-159.8" font-family="Times,serif" font-size="14.00" fill="#000000">Scope 7</text>
</g>
<!-- a -->
<g id="node11" class="node">
<title>a</title>
<ellipse fill="none" stroke="#000000" cx="217.6244" cy="-91" rx="62.7367" ry="18"/>
<text text-anchor="middle" x="217.6244" y="-86.8" font-family="Times,serif" font-size="14.00" fill="#000000">a = fib (x - 1)</text>
</g>
<!-- _7&#45;&gt;a -->
<g id="edge5" class="edge">
<title>_7-&gt;a</title>
<path fill="none" stroke="#000000" d="M217.6244,-145.9551C217.6244,-137.8828 217.6244,-128.1764 217.6244,-119.1817"/>
<polygon fill="#000000" stroke="#000000" points="221.1245,-119.0903 217.6244,-109.0904 214.1245,-119.0904 221.1245,-119.0903"/>
</g>
<!-- b -->
<g id="node12" class="node">
<title>b</title>
<ellipse fill="none" stroke="#000000" cx="361.6244" cy="-91" rx="63.3201" ry="18"/>
<text text-anchor="middle" x="361.6244" y="-86.8" font-family="Times,serif" font-size="14.00" fill="#000000">b = fib (x - 2)</text>
</g>
<!-- _7&#45;&gt;b -->
<g id="edge6" class="edge">
<title>_7-&gt;b</title>
<path fill="none" stroke="#000000" d="M244.7097,-150.2693C266.3101,-139.3191 296.8903,-123.8166 321.3581,-111.4128"/>
<polygon fill="#000000" stroke="#000000" points="323.0681,-114.47 330.4049,-106.8266 319.9029,-108.2265 323.0681,-114.47"/>
</g>
<!-- _x0&#45;&gt;_1 -->
<g id="edge7" class="edge">
<title>_x0-&gt;_1</title>
<path fill="none" stroke="#000000" d="M90.5062,-396.63C83.3433,-383.9088 73.6179,-366.6364 65.5642,-352.3331"/>
<polygon fill="#000000" stroke="#000000" points="68.5132,-350.4367 60.557,-343.4402 62.4136,-353.8711 68.5132,-350.4367"/>
<text text-anchor="middle" x="92.677" y="-366" font-family="Times,serif" font-size="14.00" fill="#000000">then</text>
</g>
<!-- _x0&#45;&gt;_3 -->
<g id="edge8" class="edge">
<title>_x0-&gt;_3</title>
<path fill="none" stroke="#000000" d="M112.1592,-396.63C120.4026,-383.7876 131.6233,-366.307 140.8548,-351.9253"/>
<polygon fill="#000000" stroke="#000000" points="143.8449,-353.7464 146.3013,-343.4402 137.954,-349.9651 143.8449,-353.7464"/>
<text text-anchor="middle" x="145.5066" y="-366" font-family="Times,serif" font-size="14.00" fill="#000000">else</text>
</g>
<!-- _x4&#45;&gt;_5 -->
<g id="edge9" class="edge">
<title>_x4-&gt;_5</title>
<path fill="none" stroke="#000000" d="M152.0896,-234.83C143.8462,-221.9876 132.6255,-204.507 123.394,-190.1253"/>
<polygon fill="#000000" stroke="#000000" points="126.2948,-188.1651 117.9475,-181.6402 120.404,-191.9464 126.2948,-188.1651"/>
<text text-anchor="middle" x="152.677" y="-204.2" font-family="Times,serif" font-size="14.00" fill="#000000">then</text>
</g>
<!-- _x4&#45;&gt;_7 -->
<g id="edge10" class="edge">
<title>_x4-&gt;_7</title>
<path fill="none" stroke="#000000" d="M174.5521,-234.83C182.288,-222.1088 192.7915,-204.8364 201.4894,-190.5331"/>
<polygon fill="#000000" stroke="#000000" points="204.6919,-192.003 206.8973,-181.6402 198.7109,-188.3659 204.6919,-192.003"/>
<text text-anchor="middle" x="206.5066" y="-204.2" font-family="Times,serif" font-size="14.00" fill="#000000">else</text>
</g>
<!-- _x8 -->
<g id="node10" class="node">
<title>_x8</title>
<ellipse fill="none" stroke="#000000" cx="288.6244" cy="-18" rx="55.3709" ry="18"/>
<text text-anchor="middle" x="288.6244" y="-13.8" font-family="Times,serif" font-size="14.00" fill="#000000">_x8 = a + b</text>
</g>
<!-- a&#45;&gt;_x8 -->
<g id="edge11" class="edge">
<title>a-&gt;_x8</title>
<path fill="none" stroke="#000000" d="M234.8115,-73.3287C243.707,-64.1827 254.7151,-52.8646 264.4527,-42.8526"/>
<polygon fill="#000000" stroke="#000000" points="267.1324,-45.1174 271.5956,-35.5085 262.1143,-40.2369 267.1324,-45.1174"/>
</g>
<!-- b&#45;&gt;_x8 -->
<g id="edge12" class="edge">
<title>b-&gt;_x8</title>
<path fill="none" stroke="#000000" d="M343.9532,-73.3287C334.8071,-64.1827 323.489,-52.8646 313.477,-42.8526"/>
<polygon fill="#000000" stroke="#000000" points="315.6789,-40.1047 306.1329,-35.5085 310.7292,-45.0545 315.6789,-40.1047"/>
</g>
</g>
</svg>