<?xml version="1.0" encoding="UTF-8" standalone="no"?>
<!DOCTYPE svg PUBLIC "-//W3C//DTD SVG 1.1//EN" "http://www.w3.org/Graphics/SVG/1.1/DTD/svg11.dtd">
<!-- Generated by graphviz version 2.40.1 (20161225.0304)
 -->
<!-- Title: %0 Pages: 1 -->
<svg width="458pt" height="879pt" viewBox="0.00 0.00 458.48 878.60" xmlns="http://www.w3.org/2000/svg" xmlns:xlink="http://www.w3.org/1999/xlink">
<g id="graph0" class="graph" transform="scale(1 1) rotate(0) translate(4 874.6)">
<title>%0</title>
<polygon fill="#ffffff" stroke="transparent" points="-4,4 -4,-874.6 454.4765,-874.6 454.4765,4 -4,4"/>
<!-- _ -->
<g id="node1" class="node">
<title>_</title>
<ellipse fill="none" stroke="#000000" cx="102.6244" cy="-852.6" rx="27" ry="18"/>
<text text-anchor="middle" x="102.6244" y="-848.4" font-family="Times,serif" font-size="14.00" fill="#000000">_</text>
</g>
<!-- _x0 -->
<g id="node6" class="node">
<title>_x0</title>
<ellipse fill="none" stroke="#000000" cx="102.6244" cy="-779.6" rx="67.7043" ry="18"/>
<text text-anchor="middle" x="102.6244" y="-775.4" font-family="Times,serif" font-size="14.00" fill="#000000">_x0 = (n == 0)</text>
</g>
<!-- _&#45;&gt;_x0 -->
<g id="edge19" class="edge">
<title>_-&gt;_x0</title>
<path fill="none" stroke="#000000" d="M102.6244,-834.5551C102.6244,-826.4828 102.6244,-816.7764 102.6244,-807.7817"/>
<polygon fill="#000000" stroke="#000000" points="106.1245,-807.6903 102.6244,-797.6904 99.1245,-807.6904 106.1245,-807.6903"/>
</g>
<!-- _1 -->
<g id="node2" class="node">
<title>_1</title>
<ellipse fill="none" stroke="#000000" cx="67.6244" cy="-617.8" rx="27" ry="18"/>
<text text-anchor="middle" x="67.6244" y="-613.6" font-family="Times,serif" font-size="14.00" fill="#000000">_1</text>
</g>
<!-- _x2 -->
<g id="node13" class="node">
<title>_x2</title>
<ellipse fill="none" stroke="#000000" cx="40.6244" cy="-544.8" rx="40.7492" ry="18"/>
<text text-anchor="middle" x="40.6244" y="-540.6" font-family="Times,serif" font-size="14.00" fill="#000000">_x2 = 1</text>
</g>
<!-- _1&#45;&gt;_x2 -->
<g id="edge18" class="edge">
<title>_1-&gt;_x2</title>
<path fill="none" stroke="#000000" d="M61.0885,-600.1287C58.0168,-591.824 54.2829,-581.7283 50.8496,-572.4458"/>
<polygon fill="#000000" stroke="#000000" points="54.0394,-570.9806 47.2878,-562.8157 47.4741,-573.4089 54.0394,-570.9806"/>
</g>
<!-- _3 -->
<g id="node3" class="node">
<title>_3</title>
<ellipse fill="none" stroke="#000000" cx="152.6244" cy="-617.8" rx="27" ry="18"/>
<text text-anchor="middle" x="152.6244" y="-613.6" font-family="Times,serif" font-size="14.00" fill="#000000">_3</text>
</g>
<!-- _x4 -->
<g id="node14" class="node">
<title>_x4</title>
<ellipse fill="none" stroke="#000000" cx="166.6244" cy="-544.8" rx="67.7043" ry="18"/>
<text text-anchor="middle" x="166.6244" y="-540.6" font-family="Times,serif" font-size="14.00" fill="#000000">_x4 = (n == 1)</text>
</g>
<!-- _3&#45;&gt;_x4 -->
<g id="edge17" class="edge">
<title>_3-&gt;_x4</title>
<path fill="none" stroke="#000000" d="M156.0851,-599.7551C157.6332,-591.6828 159.4947,-581.9764 161.2197,-572.9817"/>
<polygon fill="#000000" stroke="#000000" points="164.7088,-573.3706 163.155,-562.8904 157.8341,-572.0521 164.7088,-573.3706"/>
</g>
<!-- _5 -->
<g id="node4" class="node">
<title>_5</title>
<ellipse fill="none" stroke="#000000" cx="131.6244" cy="-383" rx="27" ry="18"/>
<text text-anchor="middle" x="131.6244" y="-378.8" font-family="Times,serif" font-size="14.00" fill="#000000">_5</text>
</g>
<!-- _x6 -->
<g id="node15" class="node">
<title>_x6</title>
<ellipse fill="none" stroke="#000000" cx="105.6244" cy="-310" rx="40.7492" ry="18"/>
<text text-anchor="middle" x="105.6244" y="-305.8" font-family="Times,serif" font-size="14.00" fill="#000000">_x6 = 1</text>
</g>
<!-- _5&#45;&gt;_x6 -->
<g id="edge16" class="edge">
<title>_5-&gt;_x6</title>
<path fill="none" stroke="#000000" d="M125.3305,-365.3287C122.3727,-357.024 118.777,-346.9283 115.4709,-337.6458"/>
<polygon fill="#000000" stroke="#000000" points="118.6933,-336.2617 112.041,-328.0157 112.0991,-338.6103 118.6933,-336.2617"/>
</g>
<!-- _7 -->
<g id="node5" class="node">
<title>_7</title>
<ellipse fill="none" stroke="#000000" cx="228.6244" cy="-383" rx="27" ry="18"/>
<text text-anchor="middle" x="228.6244" y="-378.8" font-family="Times,serif" font-size="14.00" fill="#000000">_7</text>
</g>
<!-- _x10 -->
<g id="node7" class="node">
<title>_x10</title>
<ellipse fill="none" stroke="#000000" cx="228.6244" cy="-310" rx="64.5094" ry="18"/>
<text text-anchor="middle" x="228.6244" y="-305.8" font-family="Times,serif" font-size="14.00" fill="#000000">_x10 = (n - 2)</text>
</g>
<!-- _7&#45;&gt;_x10 -->
<g id="edge12" class="edge">
<title>_7-&gt;_x10</title>
<path fill="none" stroke="#000000" d="M228.6244,-364.9551C228.6244,-356.8828 228.6244,-347.1764 228.6244,-338.1817"/>
<polygon fill="#000000" stroke="#000000" points="232.1245,-338.0903 228.6244,-328.0904 225.1245,-338.0904 232.1245,-338.0903"/>
</g>
<!-- _x8 -->
<g id="node16" class="node">
<title>_x8</title>
<ellipse fill="none" stroke="#000000" cx="377.6244" cy="-310" rx="59.8516" ry="18"/>
<text text-anchor="middle" x="377.6244" y="-305.8" font-family="Times,serif" font-size="14.00" fill="#000000">_x8 = (n - 1)</text>
</g>
<!-- _7&#45;&gt;_x8 -->
<g id="edge15" class="edge">
<title>_7-&gt;_x8</title>
<path fill="none" stroke="#000000" d="M250.6099,-372.2286C273.3014,-361.1113 309.2178,-343.5147 337.0766,-329.8657"/>
<polygon fill="#000000" stroke="#000000" points="338.7444,-332.9461 346.1847,-325.4034 335.6646,-326.66 338.7444,-332.9461"/>
</g>
<!-- _x15 -->
<g id="node12" class="node">
<title>_x15</title>
<ellipse fill="none" stroke="#000000" cx="102.6244" cy="-706.6" rx="63.9074" ry="18"/>
<text text-anchor="middle" x="102.6244" y="-702.4" font-family="Times,serif" font-size="14.00" fill="#000000">_x15 = If _x0</text>
</g>
<!-- _x0&#45;&gt;_x15 -->
<g id="edge1" class="edge">
<title>_x0-&gt;_x15</title>
<path fill="none" stroke="#000000" d="M102.6244,-761.5551C102.6244,-753.4828 102.6244,-743.7764 102.6244,-734.7817"/>
<polygon fill="#000000" stroke="#000000" points="106.1245,-734.6903 102.6244,-724.6904 99.1245,-734.6904 106.1245,-734.6903"/>
</g>
<!-- _x11 -->
<g id="node8" class="node">
<title>_x11</title>
<ellipse fill="none" stroke="#000000" cx="213.6244" cy="-237" rx="79.5181" ry="18"/>
<text text-anchor="middle" x="213.6244" y="-232.8" font-family="Times,serif" font-size="14.00" fill="#000000">_x11 = (fib _x10)</text>
</g>
<!-- _x10&#45;&gt;_x11 -->
<g id="edge11" class="edge">
<title>_x10-&gt;_x11</title>
<path fill="none" stroke="#000000" d="M224.9166,-291.9551C223.2399,-283.7951 221.22,-273.9652 219.355,-264.8887"/>
<polygon fill="#000000" stroke="#000000" points="222.7828,-264.1812 217.3416,-255.0904 215.9261,-265.5902 222.7828,-264.1812"/>
</g>
<!-- b -->
<g id="node19" class="node">
<title>b</title>
<ellipse fill="none" stroke="#000000" cx="260.6244" cy="-164" rx="45.4058" ry="18"/>
<text text-anchor="middle" x="260.6244" y="-159.8" font-family="Times,serif" font-size="14.00" fill="#000000">b = _x11</text>
</g>
<!-- _x11&#45;&gt;b -->
<g id="edge10" class="edge">
<title>_x11-&gt;b</title>
<path fill="none" stroke="#000000" d="M225.2424,-218.9551C230.8618,-210.2271 237.7112,-199.5886 243.8815,-190.005"/>
<polygon fill="#000000" stroke="#000000" points="246.8316,-191.8882 249.3023,-181.5855 240.946,-188.0988 246.8316,-191.8882"/>
</g>
<!-- _x12 -->
<g id="node9" class="node">
<title>_x12</title>
<ellipse fill="none" stroke="#000000" cx="311.6244" cy="-91" rx="66.3865" ry="18"/>
<text text-anchor="middle" x="311.6244" y="-86.8" font-family="Times,serif" font-size="14.00" fill="#000000">_x12 = (a + b)</text>
</g>
<!-- _x13 -->
<g id="node10" class="node">
<title>_x13</title>
<ellipse fill="none" stroke="#000000" cx="311.6244" cy="-18" rx="59.8767" ry="18"/>
<text text-anchor="middle" x="311.6244" y="-13.8" font-family="Times,serif" font-size="14.00" fill="#000000">_x13 = _x12</text>
</g>
<!-- _x12&#45;&gt;_x13 -->
<g id="edge7" class="edge">
<title>_x12-&gt;_x13</title>
<path fill="none" stroke="#000000" d="M311.6244,-72.9551C311.6244,-64.8828 311.6244,-55.1764 311.6244,-46.1817"/>
<polygon fill="#000000" stroke="#000000" points="315.1245,-46.0903 311.6244,-36.0904 308.1245,-46.0904 315.1245,-46.0903"/>
</g>
<!-- _x14 -->
<g id="node11" class="node">
<title>_x14</title>
<ellipse fill="none" stroke="#000000" cx="166.6244" cy="-471.8" rx="63.9074" ry="18"/>
<text text-anchor="middle" x="166.6244" y="-467.6" font-family="Times,serif" font-size="14.00" fill="#000000">_x14 = If _x4</text>
</g>
<!-- _x14&#45;&gt;_5 -->
<g id="edge5" class="edge">
<title>_x14-&gt;_5</title>
<path fill="none" stroke="#000000" d="M158.1564,-453.6025C155.609,-447.938 152.8683,-441.6448 150.5192,-435.8 147.2152,-427.5794 143.8726,-418.5315 140.9364,-410.2831"/>
<polygon fill="#000000" stroke="#000000" points="144.1978,-409.0065 137.5863,-400.7277 137.592,-411.3226 144.1978,-409.0065"/>
<text text-anchor="middle" x="162.677" y="-423.2" font-family="Times,serif" font-size="14.00" fill="#000000">then</text>
</g>
<!-- _x14&#45;&gt;_7 -->
<g id="edge6" class="edge">
<title>_x14-&gt;_7</title>
<path fill="none" stroke="#000000" d="M179.171,-453.83C188.372,-440.6519 200.9829,-422.5898 211.1668,-408.0038"/>
<polygon fill="#000000" stroke="#000000" points="214.287,-409.6488 217.142,-399.4458 208.5475,-405.6415 214.287,-409.6488"/>
<text text-anchor="middle" x="214.5066" y="-423.2" font-family="Times,serif" font-size="14.00" fill="#000000">else</text>
</g>
<!-- _x15&#45;&gt;_1 -->
<g id="edge2" class="edge">
<title>_x15-&gt;_1</title>
<path fill="none" stroke="#000000" d="M94.1564,-688.4025C91.609,-682.738 88.8683,-676.4448 86.5192,-670.6 83.2152,-662.3794 79.8726,-653.3315 76.9364,-645.0831"/>
<polygon fill="#000000" stroke="#000000" points="80.1978,-643.8065 73.5863,-635.5277 73.592,-646.1226 80.1978,-643.8065"/>
<text text-anchor="middle" x="98.677" y="-658" font-family="Times,serif" font-size="14.00" fill="#000000">then</text>
</g>
<!-- _x15&#45;&gt;_3 -->
<g id="edge3" class="edge">
<title>_x15-&gt;_3</title>
<path fill="none" stroke="#000000" d="M112.7427,-688.63C119.9991,-675.7425 129.8856,-658.1841 137.9996,-643.7737"/>
<polygon fill="#000000" stroke="#000000" points="141.1735,-645.2703 143.0301,-634.8394 135.074,-641.8359 141.1735,-645.2703"/>
<text text-anchor="middle" x="143.5066" y="-658" font-family="Times,serif" font-size="14.00" fill="#000000">else</text>
</g>
<!-- _x4&#45;&gt;_x14 -->
<g id="edge4" class="edge">
<title>_x4-&gt;_x14</title>
<path fill="none" stroke="#000000" d="M166.6244,-526.7551C166.6244,-518.6828 166.6244,-508.9764 166.6244,-499.9817"/>
<polygon fill="#000000" stroke="#000000" points="170.1245,-499.8903 166.6244,-489.8904 163.1245,-499.8904 170.1245,-499.8903"/>
</g>
<!-- _x9 -->
<g id="node17" class="node">
<title>_x9</title>
<ellipse fill="none" stroke="#000000" cx="380.6244" cy="-237" rx="69.7046" ry="18"/>
<text text-anchor="middle" x="380.6244" y="-232.8" font-family="Times,serif" font-size="14.00" fill="#000000">_x9 = (fib _x8)</text>
</g>
<!-- _x8&#45;&gt;_x9 -->
<g id="edge14" class="edge">
<title>_x8-&gt;_x9</title>
<path fill="none" stroke="#000000" d="M378.366,-291.9551C378.6977,-283.8828 379.0966,-274.1764 379.4663,-265.1817"/>
<polygon fill="#000000" stroke="#000000" points="382.9673,-265.2257 379.881,-255.0904 375.9732,-264.9382 382.9673,-265.2257"/>
</g>
<!-- a -->
<g id="node18" class="node">
<title>a</title>
<ellipse fill="none" stroke="#000000" cx="372.6244" cy="-164" rx="40.1655" ry="18"/>
<text text-anchor="middle" x="372.6244" y="-159.8" font-family="Times,serif" font-size="14.00" fill="#000000">a = _x9</text>
</g>
<!-- _x9&#45;&gt;a -->
<g id="edge13" class="edge">
<title>_x9-&gt;a</title>
<path fill="none" stroke="#000000" d="M378.6469,-218.9551C377.7623,-210.8828 376.6985,-201.1764 375.7128,-192.1817"/>
<polygon fill="#000000" stroke="#000000" points="379.1756,-191.6495 374.6069,-182.0904 372.2172,-192.4122 379.1756,-191.6495"/>
</g>
<!-- a&#45;&gt;_x12 -->
<g id="edge9" class="edge">
<title>a-&gt;_x12</title>
<path fill="none" stroke="#000000" d="M358.4765,-147.0688C350.8671,-137.9626 341.3299,-126.5491 332.8497,-116.4008"/>
<polygon fill="#000000" stroke="#000000" points="335.4305,-114.0308 326.3325,-108.6015 330.0589,-118.5194 335.4305,-114.0308"/>
</g>
<!-- b&#45;&gt;_x12 -->
<g id="edge8" class="edge">
<title>b-&gt;_x12</title>
<path fill="none" stroke="#000000" d="M272.9701,-146.3287C279.0641,-137.606 286.5383,-126.9075 293.2849,-117.2507"/>
<polygon fill="#000000" stroke="#000000" points="296.3577,-118.9636 299.2157,-108.7615 290.6194,-114.9547 296.3577,-118.9636"/>
</g>
</g>
</svg>