<?xml version="1.0" encoding="UTF-8" standalone="no"?>
<!DOCTYPE svg PUBLIC "-//W3C//DTD SVG 1.1//EN" "http://www.w3.org/Graphics/SVG/1.1/DTD/svg11.dtd">
<!-- Generated by graphviz version 2.40.1 (20161225.0304)
 -->
<!-- Title: %0 Pages: 1 -->
<svg width="428pt" height="587pt" viewBox="0.00 0.00 427.96 586.60" xmlns="http://www.w3.org/2000/svg" xmlns:xlink="http://www.w3.org/1999/xlink">
<g id="graph0" class="graph" transform="scale(1 1) rotate(0) translate(4 582.6)">
<title>%0</title>
<polygon fill="#ffffff" stroke="transparent" points="-4,4 -4,-582.6 423.9623,-582.6 423.9623,4 -4,4"/>
<!-- _ -->
<g id="node1" class="node">
<title>_</title>
<ellipse fill="none" stroke="#000000" cx="277.8954" cy="-560.6" rx="49.5132" ry="18"/>
<text text-anchor="middle" x="277.8954" y="-556.4" font-family="Times,serif" font-size="14.00" fill="#000000">Scope "_"</text>
</g>
<!-- _x0 -->
<g id="node6" class="node">
<title>_x0</title>
<ellipse fill="none" stroke="#000000" cx="277.8954" cy="-487.6" rx="64.6416" ry="18"/>
<text text-anchor="middle" x="277.8954" y="-483.4" font-family="Times,serif" font-size="14.00" fill="#000000">_x0 = If x &lt; 1</text>
</g>
<!-- _&#45;&gt;_x0 -->
<g id="edge1" class="edge">
<title>_-&gt;_x0</title>
<path fill="none" stroke="#000000" d="M271.9797,-542.5551C271.1812,-534.4828 270.9559,-524.7764 271.3037,-515.7817"/>
<polygon fill="#000000" stroke="#000000" points="274.8034,-515.9007 271.9752,-505.6904 267.8189,-515.4359 274.8034,-515.9007"/>
</g>
<!-- _&#45;&gt;_x0 -->
<g id="edge2" class="edge">
<title>_-&gt;_x0</title>
<path fill="none" stroke="#000000" stroke-dasharray="1,5" d="M283.8111,-542.5551C284.6096,-534.4828 284.8349,-524.7764 284.4871,-515.7817"/>
<polygon fill="#000000" stroke="#000000" points="287.9719,-515.4359 283.8156,-505.6904 280.9874,-515.9007 287.9719,-515.4359"/>
</g>
<!-- _x10 -->
<g id="node7" class="node">
<title>_x10</title>
<ellipse fill="none" stroke="#000000" cx="77.8954" cy="-164" rx="77.7909" ry="18"/>
<text text-anchor="middle" x="77.8954" y="-159.8" font-family="Times,serif" font-size="14.00" fill="#000000">_x10 = fib (x - 2)</text>
</g>
<!-- _&#45;&gt;_x10 -->
<g id="edge3" class="edge">
<title>_-&gt;_x10</title>
<path fill="none" stroke="#000000" stroke-dasharray="1,5" d="M232.262,-553.3353C173.234,-542.6234 77.8954,-520.2659 77.8954,-487.6 77.8954,-487.6 77.8954,-487.6 77.8954,-237 77.8954,-222.2996 77.8954,-205.934 77.8954,-192.4302"/>
<polygon fill="#000000" stroke="#000000" points="81.3955,-192.3003 77.8954,-182.3003 74.3955,-192.3004 81.3955,-192.3003"/>
</g>
<!-- _x4 -->
<g id="node9" class="node">
<title>_x4</title>
<ellipse fill="none" stroke="#000000" cx="301.8954" cy="-325.8" rx="64.6416" ry="18"/>
<text text-anchor="middle" x="301.8954" y="-321.6" font-family="Times,serif" font-size="14.00" fill="#000000">_x4 = If x &lt; 2</text>
</g>
<!-- _&#45;&gt;_x4 -->
<g id="edge4" class="edge">
<title>_-&gt;_x4</title>
<path fill="none" stroke="#000000" stroke-dasharray="1,5" d="M308.7543,-546.3962C324.7685,-537.2253 342.8365,-523.62 351.8954,-505.6 376.8084,-456.043 371.8965,-432.535 351.8954,-380.8 347.4685,-369.3495 339.427,-358.814 331.0687,-350.0947"/>
<polygon fill="#000000" stroke="#000000" points="333.3245,-347.4055 323.7249,-342.9225 328.4336,-352.4135 333.3245,-347.4055"/>
</g>
<!-- _x9 -->
<g id="node12" class="node">
<title>_x9</title>
<ellipse fill="none" stroke="#000000" cx="346.8954" cy="-164" rx="73.1339" ry="18"/>
<text text-anchor="middle" x="346.8954" y="-159.8" font-family="Times,serif" font-size="14.00" fill="#000000">_x9 = fib (x - 1)</text>
</g>
<!-- _&#45;&gt;_x9 -->
<g id="edge5" class="edge">
<title>_-&gt;_x9</title>
<path fill="none" stroke="#000000" stroke-dasharray="1,5" d="M324.45,-554.0029C362.1031,-545.7297 408.8954,-527.4349 408.8954,-487.6 408.8954,-487.6 408.8954,-487.6 408.8954,-237 408.8954,-217.3585 395.6947,-200.3005 381.4757,-187.6237"/>
<polygon fill="#000000" stroke="#000000" points="383.4787,-184.7376 373.5488,-181.0432 379.0075,-190.1236 383.4787,-184.7376"/>
</g>
<!-- _1 -->
<g id="node2" class="node">
<title>_1</title>
<ellipse fill="none" stroke="#000000" cx="160.8954" cy="-398.8" rx="54.6691" ry="18"/>
<text text-anchor="middle" x="160.8954" y="-394.6" font-family="Times,serif" font-size="14.00" fill="#000000">Scope "_1"</text>
</g>
<!-- _x2 -->
<g id="node8" class="node">
<title>_x2</title>
<ellipse fill="none" stroke="#000000" cx="160.8954" cy="-325.8" rx="40.7492" ry="18"/>
<text text-anchor="middle" x="160.8954" y="-321.6" font-family="Times,serif" font-size="14.00" fill="#000000">_x2 = 0</text>
</g>
<!-- _1&#45;&gt;_x2 -->
<g id="edge6" class="edge">
<title>_1-&gt;_x2</title>
<path fill="none" stroke="#000000" d="M160.8954,-380.7551C160.8954,-372.6828 160.8954,-362.9764 160.8954,-353.9817"/>
<polygon fill="#000000" stroke="#000000" points="164.3955,-353.8903 160.8954,-343.8904 157.3955,-353.8904 164.3955,-353.8903"/>
</g>
<!-- _3 -->
<g id="node3" class="node">
<title>_3</title>
<ellipse fill="none" stroke="#000000" cx="287.8954" cy="-398.8" rx="54.6691" ry="18"/>
<text text-anchor="middle" x="287.8954" y="-394.6" font-family="Times,serif" font-size="14.00" fill="#000000">Scope "_3"</text>
</g>
<!-- _3&#45;&gt;_x4 -->
<g id="edge7" class="edge">
<title>_3-&gt;_x4</title>
<path fill="none" stroke="#000000" d="M291.3561,-380.7551C292.9042,-372.6828 294.7657,-362.9764 296.4907,-353.9817"/>
<polygon fill="#000000" stroke="#000000" points="299.9798,-354.3706 298.426,-343.8904 293.1051,-353.0521 299.9798,-354.3706"/>
</g>
<!-- _5 -->
<g id="node4" class="node">
<title>_5</title>
<ellipse fill="none" stroke="#000000" cx="198.8954" cy="-237" rx="54.6691" ry="18"/>
<text text-anchor="middle" x="198.8954" y="-232.8" font-family="Times,serif" font-size="14.00" fill="#000000">Scope "_5"</text>
</g>
<!-- _x6 -->
<g id="node10" class="node">
<title>_x6</title>
<ellipse fill="none" stroke="#000000" cx="214.8954" cy="-164" rx="40.7492" ry="18"/>
<text text-anchor="middle" x="214.8954" y="-159.8" font-family="Times,serif" font-size="14.00" fill="#000000">_x6 = 1</text>
</g>
<!-- _5&#45;&gt;_x6 -->
<g id="edge8" class="edge">
<title>_5-&gt;_x6</title>
<path fill="none" stroke="#000000" d="M202.8505,-218.9551C204.6389,-210.7951 206.7934,-200.9652 208.7828,-191.8887"/>
<polygon fill="#000000" stroke="#000000" points="212.2082,-192.6079 210.9304,-182.0904 205.3705,-191.1091 212.2082,-192.6079"/>
</g>
<!-- _7 -->
<g id="node5" class="node">
<title>_7</title>
<ellipse fill="none" stroke="#000000" cx="325.8954" cy="-237" rx="54.6691" ry="18"/>
<text text-anchor="middle" x="325.8954" y="-232.8" font-family="Times,serif" font-size="14.00" fill="#000000">Scope "_7"</text>
</g>
<!-- _7&#45;&gt;_x10 -->
<g id="edge9" class="edge">
<title>_7-&gt;_x10</title>
<path fill="none" stroke="#000000" d="M284.9432,-224.9455C244.3129,-212.9858 181.6666,-194.5456 135.9212,-181.0802"/>
<polygon fill="#000000" stroke="#000000" points="136.7212,-177.6672 126.1398,-178.201 134.7445,-184.3824 136.7212,-177.6672"/>
</g>
<!-- _7&#45;&gt;_x9 -->
<g id="edge10" class="edge">
<title>_7-&gt;_x9</title>
<path fill="none" stroke="#000000" d="M331.0864,-218.9551C333.4338,-210.7951 336.2616,-200.9652 338.8726,-191.8887"/>
<polygon fill="#000000" stroke="#000000" points="342.2902,-192.6683 341.6913,-182.0904 335.5631,-190.733 342.2902,-192.6683"/>
</g>
<!-- _x0&#45;&gt;_1 -->
<g id="edge11" class="edge">
<title>_x0-&gt;_1</title>
<path fill="none" stroke="#000000" d="M255.6132,-470.6884C237.1989,-456.7124 210.8914,-436.7457 190.6724,-421.4"/>
<polygon fill="#000000" stroke="#000000" points="192.7801,-418.6058 182.6986,-415.3481 188.5482,-424.1817 192.7801,-418.6058"/>
<text text-anchor="middle" x="241.948" y="-439" font-family="Times,serif" font-size="14.00" fill="#000000">then</text>
</g>
<!-- _x0&#45;&gt;_3 -->
<g id="edge12" class="edge">
<title>_x0-&gt;_3</title>
<path fill="none" stroke="#000000" d="M279.9674,-469.2006C281.3442,-456.975 283.1782,-440.6887 284.7355,-426.8599"/>
<polygon fill="#000000" stroke="#000000" points="288.2191,-427.2009 285.8603,-416.872 281.2631,-426.4175 288.2191,-427.2009"/>
<text text-anchor="middle" x="294.7776" y="-439" font-family="Times,serif" font-size="14.00" fill="#000000">else</text>
</g>
<!-- b -->
<g id="node14" class="node">
<title>b</title>
<ellipse fill="none" stroke="#000000" cx="200.8954" cy="-91" rx="45.4058" ry="18"/>
<text text-anchor="middle" x="200.8954" y="-86.8" font-family="Times,serif" font-size="14.00" fill="#000000">b = _x10</text>
</g>
<!-- _x10&#45;&gt;b -->
<g id="edge13" class="edge">
<title>_x10-&gt;b</title>
<path fill="none" stroke="#000000" d="M106.4232,-147.0688C124.4352,-136.3788 147.8043,-122.5093 166.7934,-111.2394"/>
<polygon fill="#000000" stroke="#000000" points="168.6338,-114.2172 175.447,-106.1035 165.0612,-108.1975 168.6338,-114.2172"/>
</g>
<!-- _x4&#45;&gt;_5 -->
<g id="edge14" class="edge">
<title>_x4-&gt;_5</title>
<path fill="none" stroke="#000000" d="M281.5459,-308.256C265.6835,-294.5804 243.5055,-275.46 226.1165,-260.4683"/>
<polygon fill="#000000" stroke="#000000" points="228.363,-257.7839 218.5038,-253.9051 223.7922,-263.0857 228.363,-257.7839"/>
<text text-anchor="middle" x="271.948" y="-277.2" font-family="Times,serif" font-size="14.00" fill="#000000">then</text>
</g>
<!-- _x4&#45;&gt;_7 -->
<g id="edge15" class="edge">
<title>_x4-&gt;_7</title>
<path fill="none" stroke="#000000" d="M306.7522,-307.83C310.1028,-295.4327 314.6216,-278.713 318.4275,-264.6312"/>
<polygon fill="#000000" stroke="#000000" points="321.8155,-265.5101 321.0459,-254.9433 315.0579,-263.6837 321.8155,-265.5101"/>
<text text-anchor="middle" x="327.7776" y="-277.2" font-family="Times,serif" font-size="14.00" fill="#000000">else</text>
</g>
<!-- _x8 -->
<g id="node11" class="node">
<title>_x8</title>
<ellipse fill="none" stroke="#000000" cx="251.8954" cy="-18" rx="55.3709" ry="18"/>
<text text-anchor="middle" x="251.8954" y="-13.8" font-family="Times,serif" font-size="14.00" fill="#000000">_x8 = a + b</text>
</g>
<!-- a -->
<g id="node13" class="node">
<title>a</title>
<ellipse fill="none" stroke="#000000" cx="325.8954" cy="-91" rx="40.1655" ry="18"/>
<text text-anchor="middle" x="325.8954" y="-86.8" font-family="Times,serif" font-size="14.00" fill="#000000">a = _x9</text>
</g>
<!-- _x9&#45;&gt;a -->
<g id="edge16" class="edge">
<title>_x9-&gt;a</title>
<path fill="none" stroke="#000000" d="M341.7044,-145.9551C339.357,-137.7951 336.5292,-127.9652 333.9182,-118.8887"/>
<polygon fill="#000000" stroke="#000000" points="337.2277,-117.733 331.0995,-109.0904 330.5005,-119.6683 337.2277,-117.733"/>
</g>
<!-- a&#45;&gt;_x8 -->
<g id="edge17" class="edge">
<title>a-&gt;_x8</title>
<path fill="none" stroke="#000000" d="M309.1037,-74.4352C299.5643,-65.0248 287.4398,-53.0641 276.8103,-42.5782"/>
<polygon fill="#000000" stroke="#000000" points="278.9698,-39.7921 269.3928,-35.261 274.0539,-44.7755 278.9698,-39.7921"/>
</g>
<!-- b&#45;&gt;_x8 -->
<g id="edge18" class="edge">
<title>b-&gt;_x8</title>
<path fill="none" stroke="#000000" d="M213.2411,-73.3287C219.3351,-64.606 226.8093,-53.9075 233.5559,-44.2507"/>
<polygon fill="#000000" stroke="#000000" points="236.6287,-45.9636 239.4866,-35.7615 230.8904,-41.9547 236.6287,-45.9636"/>
</g>
</g>
</svg>